<?xml version="1.0" encoding="utf-8"?>
<!-- Generator: Adobe Illustrator 18.1.0, SVG Export Plug-In . SVG Version: 6.00 Build 0)  -->
<!DOCTYPE svg PUBLIC "-//W3C//DTD SVG 1.1//EN" "http://www.w3.org/Graphics/SVG/1.1/DTD/svg11.dtd">
<svg version="1.1" id="Layer_1" xmlns="http://www.w3.org/2000/svg" xmlns:xlink="http://www.w3.org/1999/xlink" x="0px" y="0px"
	 width="93px" height="93px" viewBox="0 0 93 93" enable-background="new 0 0 93 93" xml:space="preserve">
<path fill="#FFFFFF" d="M57.8,16c0.4,0.5,0.6,1.3,0.6,2.4c0,1-0.2,1.8-0.7,2.4c-0.5,0.6-1.2,0.9-2.1,0.9h-1.3v-6.5h1.5
	C56.7,15.1,57.3,15.4,57.8,16z M35.4,19.5h2.4l-1.2-4.1L35.4,19.5z M37.6,43.4c-0.3-0.2-0.8-0.4-1.4-0.4h-1.5v2.8h1.6
	c0.6,0,1.1-0.1,1.4-0.4c0.3-0.2,0.4-0.6,0.4-1.1C38,44,37.8,43.6,37.6,43.4z M93,0v93H0V0H93z M72,24.3h8.1l0.3-2.7h-5.2v-9.1H72
	V24.3z M20.6,78.6h-5.7v-2.1h5v-2.6h-5V72h5.4v-2.6h-8.5v11.8h8.5L20.6,78.6z M20.6,49.8h-5.7v-2.1h5v-2.6h-5v-1.9h5.4v-2.6h-8.5
	v11.8h8.5L20.6,49.8z M21.2,20.7c0-0.9-0.3-1.7-0.9-2.3c-0.6-0.6-1.6-1.1-3-1.3l-1.6-0.3c-0.5-0.1-0.8-0.2-1-0.4
	c-0.2-0.2-0.3-0.4-0.3-0.7c0-0.3,0.1-0.6,0.4-0.7c0.3-0.2,0.7-0.3,1.2-0.3c0.6,0,1,0.1,1.3,0.3c0.3,0.2,0.5,0.6,0.6,1.1l3.1-0.3
	c-0.1-0.5-0.2-0.9-0.4-1.4c-0.2-0.4-0.5-0.8-0.9-1.2c-0.4-0.3-0.9-0.6-1.5-0.8c-0.6-0.2-1.3-0.3-2.2-0.3c-1.5,0-2.6,0.3-3.5,0.9
	c-0.8,0.6-1.3,1.5-1.3,2.8c0,1,0.3,1.8,0.9,2.4c0.6,0.6,1.6,1,2.9,1.2l1.6,0.3c0.5,0.1,0.8,0.2,1,0.4c0.2,0.2,0.3,0.4,0.3,0.7
	c0,0.4-0.1,0.6-0.4,0.8c-0.3,0.2-0.7,0.3-1.3,0.3c-0.7,0-1.2-0.1-1.5-0.4c-0.3-0.3-0.5-0.7-0.6-1.2h-3.2c0.2,2.8,1.9,4.2,5.2,4.2
	c0.9,0,1.6-0.1,2.2-0.3c0.6-0.2,1.1-0.5,1.6-0.8c0.4-0.3,0.7-0.7,0.9-1.2C21.1,21.8,21.2,21.3,21.2,20.7z M40.9,78.5h-5.2v-9.1h-3.2
	v11.8h8.1L40.9,78.5z M41.7,52.4l-2.4-4.7c0.6-0.4,1-0.8,1.3-1.4c0.3-0.6,0.4-1.2,0.4-2c0-0.5-0.1-0.9-0.2-1.4
	c-0.1-0.5-0.4-0.9-0.8-1.2c-0.4-0.3-0.8-0.6-1.4-0.8c-0.6-0.2-1.4-0.3-2.3-0.3h-4.7v11.8h3v-4.1h1.7l1.9,4.1H41.7z M42.6,24.3
	l-4.1-11.8h-3.6l-4.1,11.8H34l0.7-2.3h4l0.7,2.3H42.6z M60.6,78.5h-5.2v-9.1h-3.2v11.8h8.1L60.6,78.5z M61.5,48.8
	c0-0.9-0.3-1.7-0.9-2.3c-0.6-0.6-1.6-1.1-3-1.3L56,44.8c-0.5-0.1-0.8-0.2-1-0.4c-0.2-0.2-0.3-0.4-0.3-0.7c0-0.3,0.1-0.6,0.4-0.7
	c0.3-0.2,0.7-0.3,1.2-0.3c0.6,0,1,0.1,1.3,0.3c0.3,0.2,0.5,0.6,0.6,1.1l3.1-0.3c-0.1-0.5-0.2-0.9-0.4-1.4c-0.2-0.4-0.5-0.8-0.9-1.2
	c-0.4-0.3-0.9-0.6-1.5-0.8c-0.6-0.2-1.3-0.3-2.2-0.3c-1.5,0-2.6,0.3-3.5,0.9c-0.8,0.6-1.3,1.5-1.3,2.8c0,1,0.3,1.8,0.9,2.4
	c0.6,0.6,1.6,1,2.9,1.2l1.6,0.3c0.5,0.1,0.8,0.2,1,0.4c0.2,0.2,0.3,0.4,0.3,0.7c0,0.4-0.1,0.6-0.4,0.8c-0.3,0.2-0.7,0.3-1.3,0.3
	c-0.7,0-1.2-0.1-1.5-0.4c-0.3-0.3-0.5-0.7-0.6-1.2h-3.2c0.2,2.8,1.9,4.2,5.2,4.2c0.9,0,1.6-0.1,2.2-0.3s1.1-0.5,1.6-0.8
	c0.4-0.3,0.7-0.7,0.9-1.2C61.4,49.9,61.5,49.4,61.5,48.8z M61.7,18.2c0-1.9-0.5-3.3-1.5-4.3c-1-1-2.5-1.5-4.5-1.5h-4.7v11.8h4.5
	c2,0,3.5-0.5,4.6-1.6C61.2,21.7,61.7,20.2,61.7,18.2z M81.3,77.6c0-0.9-0.3-1.7-0.9-2.3c-0.6-0.6-1.6-1.1-3-1.3l-1.6-0.3
	c-0.5-0.1-0.8-0.2-1-0.4c-0.2-0.2-0.3-0.4-0.3-0.7c0-0.3,0.1-0.6,0.4-0.7c0.3-0.2,0.7-0.3,1.2-0.3c0.6,0,1,0.1,1.3,0.3
	c0.3,0.2,0.5,0.6,0.6,1.1l3.1-0.3c-0.1-0.5-0.2-0.9-0.4-1.4c-0.2-0.4-0.5-0.8-0.9-1.2c-0.4-0.3-0.9-0.6-1.5-0.8
	c-0.6-0.2-1.3-0.3-2.2-0.3c-1.5,0-2.6,0.3-3.5,0.9c-0.8,0.6-1.3,1.5-1.3,2.8c0,1,0.3,1.8,0.9,2.4c0.6,0.6,1.6,1,2.9,1.2l1.6,0.3
	c0.5,0.1,0.8,0.2,1,0.4c0.2,0.2,0.3,0.4,0.3,0.7c0,0.4-0.1,0.6-0.4,0.8C77.4,78.9,77,79,76.4,79c-0.7,0-1.2-0.1-1.5-0.4
	c-0.3-0.3-0.5-0.7-0.6-1.2h-3.2c0.2,2.8,1.9,4.2,5.2,4.2c0.9,0,1.6-0.1,2.2-0.3c0.6-0.2,1.1-0.5,1.6-0.8c0.4-0.3,0.7-0.7,0.9-1.2
	C81.2,78.8,81.3,78.2,81.3,77.6z M83.9,40.6h-3.3l-1.5,7.7l-1.7-7.6h-2.9l-1.7,7.6l-1.5-7.7H68l3.2,11.8h3.1l1.7-7.6l1.7,7.6h3.2
	L83.9,40.6z"/>
</svg>
